<svg xmlns="http://www.w3.org/2000/svg" width="1292" height="119" fill="none"><path fill="#000" d="M13.8 46.2c-.4 0-.7-.1-1-.4-.2-.3-.4-.6-.4-.9 0-.3.2-.5.4-.8l.9-.4.7-.1.4-.5.3-.7a23.7 23.7 0 0 1-8.3-2.9c-1.5-1-2.9-2.2-4-3.8A8.8 8.8 0 0 1 1.6 28a9 9 0 0 1 1-2c.3-.6.8-1.1 1.4-1.6.5-.4 1.1-.7 1.8-1a6.9 6.9 0 0 1 5.1.4c1 .6 1.8 1.2 2.4 2.1a4.7 4.7 0 0 1 .5 4.2l-.2 1c-.3.4-.7.7-1.3.7-.3 0-.6-.2-.8-.4-.3-.3-.4-.7-.3-1.3 0-.3.2-.6.4-.9v-.6c0-.9-.5-1.6-1.3-2-.8-.6-1.7-.9-2.6-.9-.4 0-.7 0-1.1.2a2 2 0 0 0-1 .5c-.5.4-1 1-1.3 1.9-.3.8-.5 1.5-.5 2.3 0 1.2.3 2.3 1 3.4a9.5 9.5 0 0 0 2.9 3 15 15 0 0 0 3.9 1.9c1.4.4 2.8.8 4.1 1v-.4a111.4 111.4 0 0 0 .7-13.5l.1-6.6a41.3 41.3 0 0 1 1.6-8.9 2.5 2.5 0 0 1 2.2-1.6c.4 0 .8.2 1 .5l.3.9c0 .3 0 .5-.3.8-.1.2-.3.3-.7.3-.2 0-.3.2-.5.8a22 22 0 0 0-.5 2.6 38.4 38.4 0 0 0-.7 7.6V26a98.3 98.3 0 0 0 .1 6.3 47.6 47.6 0 0 1-.8 7.8h.8l1 .1a29 29 0 0 0 10.3-1.7c3.1-1.2 5.6-3.1 7.4-5.7 1.8-2.6 2.7-6 2.7-10 0-3-.6-5.5-1.6-7.7-1.1-2.2-2.6-4-4.5-5.5A19 19 0 0 0 28 6.2 25.7 25.7 0 0 0 10 7.4a9.7 9.7 0 0 0-3.7 3.2L5.6 12c-.2.4-.3.9-.3 1.4a5 5 0 0 0 .8 2.9c.5.7 1.2 1 2 1a4 4 0 0 0 2-.6l.5-.2v-.1c0-.2.2-.4.4-.6l.6-.3c.4-.3.8-.4 1-.4.3 0 .6.1.7.3.2.2.3.5.3.8a1.7 1.7 0 0 1-.2.9l-.6.7-.8.7c-.6.5-1.2.8-1.9 1-.6.3-1.2.4-1.9.4-1.4 0-2.7-.6-3.8-1.6-1-1-1.6-2.5-1.6-4.3 0-1.7.4-3.2 1.2-4.5.7-1.3 1.7-2.3 3-3.2A18 18 0 0 1 11.2 4a24.6 24.6 0 0 1 9-1.6c3 0 5.8.5 8.6 1.3 2.7 1 5.1 2.2 7.3 4 2 1.6 3.7 3.7 5 6.2 1.2 2.5 1.8 5.4 1.8 8.7 0 3.5-.6 6.4-1.8 9a17.1 17.1 0 0 1-5 6.2 21.7 21.7 0 0 1-7.3 3.6 32 32 0 0 1-8.9 1.2h-2.2c-.2.8-.6 1.6-1 2.2-.6.7-1.4 1.1-2.5 1.3h-.4Zm43-4.8c-2.2 0-4.1-.5-5.7-1.7a11.6 11.6 0 0 1-3.5-4.7 15.8 15.8 0 0 1-.1-11.4 11.3 11.3 0 0 1 7-6.8c1.4-.5 2.7-.7 4-.7 2.2 0 3.8.5 4.8 1.6 1 1 1.5 2.2 1.5 3.7a8.5 8.5 0 0 1-3.6 6.6 15.2 15.2 0 0 1-8.2 2.5c-1.3 0-2.5-.2-3.8-.6.1 1.6.4 3 1 4.4a8.2 8.2 0 0 0 2.5 3.2c1.1.9 2.5 1.3 4 1.3a11.7 11.7 0 0 0 5.6-1.5 3.3 3.3 0 0 0 1.6-3v-.8c0-.5.1-.8.4-1 .3-.2.6-.3 1-.3.3 0 .6 0 .8.3.3.2.5.5.5 1v1.3c0 .4-.1.9-.3 1.3a6.2 6.2 0 0 1-2.2 3.2 11 11 0 0 1-3.6 1.6c-1.3.4-2.5.5-3.7.5ZM53 27.8l1.8-.1c1.1-.2 2.2-.6 3.3-1.1a8.4 8.4 0 0 0 2.9-2.1c.8-1 1.1-2 1.1-3.2a2 2 0 0 0-.8-1.8c-.5-.4-1.2-.6-2-.7h-.6l-.6-.1a7 7 0 0 0-4.1 1.2 10 10 0 0 0-3 3.1c-.8 1.3-1.3 2.7-1.5 4.1.5.3 1 .5 1.7.6l1.8.1Zm27.6 19.4a18.2 18.2 0 0 1-8.3-2.2c-1.3-.7-2.4-1.6-3.3-2.8a6.8 6.8 0 0 1-1.3-4c0-2 .4-3.5 1-4.7.7-1.1 1.5-2 2.6-2.4 1-.5 2.2-.8 3.3-.8 1.2 0 2.4.3 3.5.7 1.1.5 2 1.1 2.8 2a3.7 3.7 0 0 1 .3 5l-.9.7a2 2 0 0 1-.9.2c-.3 0-.7 0-1-.3-.2-.3-.3-.6-.3-1 0-.5.2-.9.7-1.2.4-.2.6-.5.6-.8 0-.4-.2-.8-.8-1.2l-1.7-1A5.8 5.8 0 0 0 75 33h-.5c-1.5 0-2.5.5-3.2 1.4-.7.9-1 2.1-1 3.7 0 1.1.3 2 1 2.9.8.8 1.7 1.5 2.7 2a15.6 15.6 0 0 0 6.5 1.5c2 0 3.9-.4 5.4-1.2a10 10 0 0 0 3.8-3c1-1.3 1.4-2.6 1.4-4a6.4 6.4 0 0 0-2.4-4.7c-1-.8-2.3-1.4-3.6-1.9l-4.2-1-3.9-1.3a7.1 7.1 0 0 1-3-2.3c-.6-1-1-2.6-1-4.5 0-1 .3-2 .9-3 .6-1 1.3-1.8 2.1-2.4a9.9 9.9 0 0 1 5.9-1.7c1.1 0 2.2.1 3.2.5 1 .3 2 .9 2.8 1.5 1.1 1.1 1.7 2.4 1.7 3.7 0 .9-.2 1.7-.7 2.5-.4.5-.8.8-1.1.8-.4 0-.7-.2-1-.5-.3-.4-.4-.7-.4-1.1l.1-.5.3-.8.1-.6c0-.4-.2-1-.8-1.4-.5-.5-1.1-.9-1.9-1a7.7 7.7 0 0 0-4.6-.1c-.8.2-1.4.5-2 1a4.5 4.5 0 0 0-1.9 3.7c0 1 .5 2 1.3 2.9.7.6 1.7 1 3 1.4a630.3 630.3 0 0 0 6.8 2c1.3.5 2.5 1.2 3.6 2 1.2 1 2 2 2.5 3.2.6 1.2.8 2.4.8 3.6 0 1.6-.4 3.2-1.2 4.7-.8 1.4-2 2.6-3.5 3.6a16.6 16.6 0 0 1-8.5 2.6Zm31.2 5.6a6 6 0 0 1-5.8-4.3c-.3-1.1-.4-2.2-.4-3.3 0-.4.1-.7.4-1l.9-.3 1 .3c.2.3.3.6.3 1l.3 2.2c.2.8.5 1.4 1 1.8.7.7 1.5 1 2.3 1a3 3 0 0 0 1.6-.5c.6-.4 1-.9 1.3-1.6.4-.8.8-2 1-3.5a51.7 51.7 0 0 0 .5-10.3v-6.5a181.8 181.8 0 0 0-.2-8.8h-2.6c-.4 0-.8-.1-1-.4-.2-.3-.3-.6-.3-1l.3-.8c.2-.3.6-.5 1-.5h2.6l.1-4.3c.1-1.7.4-3.1.8-4.3.5-1.2 1.2-2 2.2-2.6 1-.6 2-.9 3.1-.9 1.3 0 2.4.4 3.4 1.2 1 .8 1.6 2 1.6 3.5 0 .5-.1.8-.4 1a1 1 0 0 1-.6.2c-.3 0-.7-.1-1-.3l-.6-.7a16.3 16.3 0 0 0-.4-1.3c-.1-.3-.4-.5-.7-.7a3 3 0 0 0-1.1-.2c-.6 0-1.2.2-1.7.5-.6.3-1 .7-1.3 1.3-.3.6-.5 1.5-.6 2.6v5h4c.4 0 .7.2 1 .4l.2 1c0 .3 0 .6-.3 1-.2.2-.5.3-1 .3h-4a184 184 0 0 1 .1 8.8V31a126.5 126.5 0 0 1-.5 14.2c-.3 1.6-.7 3-1.2 4a6 6 0 0 1-2.3 2.7c-.9.6-2 1-3 1ZM135.4 42c-2.5 0-4.5-.6-6.1-1.9-1.6-1.2-2.7-2.9-3.5-4.8-.7-2-1-4.2-1-6.3 0-.8 0-1.8.4-2.9a22.4 22.4 0 0 1 3-7c.8-1 1.7-1.9 2.6-2.5 1-.6 2-.8 3-.7.8-.3 1.7-.5 2.7-.5 1 0 2 .2 3 .6 1 .3 1.9.8 2.6 1.6l.9 1v-.2c0-.4.1-.8.4-1 .3-.2.6-.3 1-.3l.9.3c.3.2.4.6.4 1 0 .5 0 1-.3 1.5a7 7 0 0 1-.5 1.4 20 20 0 0 1 1.7 7.9c0 2.1-.5 4.2-1.4 6.2-.9 1.9-2.2 3.5-3.8 4.7a9.7 9.7 0 0 1-6 2Zm.8-18.9c1 0 2-.1 3-.4a7 7 0 0 0 2.4-1.5l-.6-.8-.7-.8c-.5-.4-1-.8-1.8-1-.8-.3-1.5-.5-2.2-.5a4 4 0 0 0-2 .6c-.7.4-1 1-1 2 0 .7.3 1.3.9 1.8.5.4 1.2.6 2 .6Zm-.8 16.2c1.8 0 3.3-.5 4.6-1.4 1.3-1 2.2-2.3 2.9-3.8.7-1.6 1-3.2 1-4.9a16.3 16.3 0 0 0-1-5.6c-1 .7-2 1.3-3.1 1.7-1.2.4-2.4.5-3.6.5-1.9 0-3.3-.5-4.2-1.6a5.6 5.6 0 0 1-1.3-3.7c-1 1-1.8 2.4-2.4 4-.6 1.5-.9 3-.9 4.5 0 1.7.3 3.4.8 5a8.4 8.4 0 0 0 2.6 3.9 7 7 0 0 0 4.6 1.4Zm16.7-25.9c-.7 0-1.2-.2-1.7-.7-.4-.5-.7-1-.7-1.7s.3-1.3.7-1.7c.5-.5 1-.8 1.7-.8.6 0 1.1.3 1.6.8.4.4.7 1 .7 1.7 0 .6-.3 1.2-.7 1.7-.5.5-1 .7-1.6.7Zm2.5 28.5c-1 0-1.8-.4-2.7-1.2a6 6 0 0 1-1.5-3c-.3-1.2-.5-2.5-.5-3.9l.3-4.3a558.5 558.5 0 0 0 .7-7.2c0-1-.1-1.7-.4-2-1-.4-1.4-1-1.4-1.7 0-.3.1-.6.4-.8.3-.2.6-.3 1-.3s.8.1 1.2.4l1 1c.3.4.6 1 .7 1.7l.2 2.2a35.2 35.2 0 0 1-.5 6.5 347 347 0 0 1-.4 5.3c0 1 0 1.8.2 2.5.2.8.5 1.3.9 1.7.2.2.5.4.9.4.6 0 1.2-.4 1.7-1a9.3 9.3 0 0 0 2-3.2c.3-.6.7-.8 1.2-.8.4 0 .7 0 1 .3.3.3.4.6.4 1v.4c-.3.8-.8 1.6-1.4 2.6-.7 1-1.4 1.7-2.3 2.4-.8.7-1.8 1-2.7 1Zm18.7 5.3a18.2 18.2 0 0 1-8.4-2.2c-1.3-.7-2.4-1.6-3.3-2.8a6.8 6.8 0 0 1-1.2-4c0-2 .3-3.5 1-4.7.6-1.1 1.5-2 2.5-2.4 1-.5 2.2-.8 3.3-.8 1.2 0 2.4.3 3.5.7 1.2.5 2 1.1 2.8 2a3.7 3.7 0 0 1 .3 5l-.9.7a2 2 0 0 1-.8.2c-.4 0-.7 0-1-.3-.3-.3-.4-.6-.4-1 0-.5.3-.9.7-1.2.5-.2.7-.5.7-.8 0-.4-.3-.8-.9-1.2l-1.7-1a5.8 5.8 0 0 0-1.8-.4h-.5c-1.4 0-2.5.5-3.2 1.4-.7.9-1 2.1-1 3.7 0 1.1.4 2 1 2.9.8.8 1.7 1.5 2.8 2a15.5 15.5 0 0 0 6.5 1.5c2 0 3.8-.4 5.4-1.2a10 10 0 0 0 3.7-3c1-1.3 1.4-2.6 1.4-4a6.3 6.3 0 0 0-2.4-4.7c-1-.8-2.2-1.4-3.6-1.9l-4.2-1-3.9-1.3a7.1 7.1 0 0 1-2.9-2.3c-.7-1-1-2.6-1-4.5 0-1 .2-2 .8-3 .6-1 1.3-1.8 2.1-2.4a9.9 9.9 0 0 1 6-1.7c1 0 2 .1 3.1.5 1 .3 2 .9 2.8 1.5 1.2 1.1 1.8 2.4 1.8 3.7 0 .9-.3 1.7-.8 2.5-.4.5-.7.8-1.1.8-.4 0-.7-.2-1-.5-.2-.4-.4-.7-.4-1.1l.1-.5.3-.8.2-.6c0-.4-.3-1-.9-1.4-.5-.5-1-.9-1.8-1a7.7 7.7 0 0 0-4.7-.1c-.7.2-1.4.5-2 1a4.5 4.5 0 0 0-1.8 3.7c0 1 .4 2 1.3 2.9.7.6 1.6 1 2.8 1.4a606.3 606.3 0 0 0 7 2c1.3.5 2.5 1.2 3.5 2 1.2 1 2 2 2.5 3.2.6 1.2.9 2.4.9 3.6 0 1.6-.4 3.2-1.3 4.7-.8 1.4-2 2.6-3.5 3.6a16.6 16.6 0 0 1-8.4 2.6Zm30-19.5h16.4l-1 4.7h-16.5l1-4.7Zm44.9-2.5a95.6 95.6 0 0 0 .1-1.1 4 4 0 0 0-.3-1.7c-.2-.6-.7-.9-1.3-.9-.6 0-1.2.3-1.8.8-.6.5-.9 1.1-.9 2 0 .5.2 1 .4 1.3l1.2.8a149 149 0 0 1 5.8 1.7c.8.3 1.5.7 2 1.2.6.5 1.1 1 1.4 1.8.4.7.6 1.6.6 2.6 0 1.4-.4 2.7-1 3.7-.7 1-1.7 1.8-2.9 2.4a14 14 0 0 1-4.2 1.2 34.2 34.2 0 0 1-16-1.4l1.1-5.2h7v1c0 .8.2 1.4.5 1.9.4.4 1 .7 2 .7s1.7-.3 2-.9c.5-.6.8-1.1.8-1.6s-.2-.9-.6-1.2a4 4 0 0 0-1.4-1c-.5-.2-1.1-.5-1.8-.6a57 57 0 0 0-3.5-1.1l-1.6-1c-.6-.5-1-1.1-1.3-1.8-.4-.7-.6-1.6-.6-2.7 0-1.5.4-2.8 1.1-3.8.8-1 1.8-1.9 3-2.5 1.2-.6 2.5-1 4-1.3a25.5 25.5 0 0 1 14.1 1.4l-1.2 5.3h-6.7Zm25.5-7.2c4.2 0 7.2.8 9 2.2 2 1.6 3 4 3 7.6 0 2.2-.4 4.2-1 6-.8 1.7-1.8 3.1-3.2 4.3-2.6 2.2-6.4 3.3-11.4 3.3-4.3 0-7.3-.8-9.2-2.5-2-1.7-3-4.2-3-7.6 0-2.3.5-4.3 1.4-6.1 1-1.9 2.3-3.4 4-4.6 2.6-1.7 6-2.6 10.4-2.6ZM270.2 38c.9 0 1.6-.5 2.2-1.5.7-1 1.2-2.2 1.6-3.5a30.2 30.2 0 0 0 .8-10.5c-.1-.6-.5-.8-1.2-.8-.9 0-1.7.5-2.4 1.5s-1.2 2.2-1.6 3.6a29.2 29.2 0 0 0-1.2 7.8c0 2.2.6 3.4 1.8 3.4Zm36.5-19.3h10.6L312.5 41H304l-1-3.4h-.3c-.9 1.1-2.1 2-3.7 2.7-1.5.7-3 1-4.6 1-2 0-3.7-.4-4.9-1.5a5.4 5.4 0 0 1-1.8-4.1c0-.9.2-2 .5-3.3l.8-3.6 2.2-10.2h10.5l-2.6 12.2-.2 1-.2 1.1a382.4 382.4 0 0 1-.2 1.8c0 .6 0 1 .3 1.4.2.3.6.5 1.2.5s1.2-.2 1.8-.6l1.3-1.2 3.5-16.2Zm13 0h11l2 15.3 7.7-15.3h5.5L334 41h-10.9l-3.6-22.4Zm35.6 12a27.3 27.3 0 0 0-.3 4 11.5 11.5 0 0 0 .2 2.1l.5.8c.3.2.6.4 1 .4.3 0 .7-.2 1-.4l1.3-.8 1.1-1.4c.4-.6.7-1.2.9-2h8.5l-1.3 5.6c-.7.5-1.5.9-2.4 1.2a23 23 0 0 1-9 1.3c-1.6 0-3.3-.2-4.7-.5-1.5-.3-2.8-.8-4-1.6-1-.8-2-1.8-2.6-3-.6-1.3-1-2.9-1-4.7 0-1.7.3-3.4.8-5 .6-1.7 1.5-3.1 2.8-4.3 1.2-1.3 3-2.4 5-3.1 2.2-.8 4.9-1.2 8-1.2 3.5 0 6.1.6 7.9 1.7 1.7 1 2.6 2.7 2.6 5 0 1-.1 2-.4 3a8 8 0 0 1-1.3 2.8h-14.6Zm7-6.3c0-1-.2-1.8-.6-2.2-.3-.3-.7-.5-1.2-.5-.6 0-1.1.2-1.6.5l-1.2 1.5a16.8 16.8 0 0 0-1.8 4.5h5.9a105.3 105.3 0 0 0 .4-3.8Zm24-2.4a17 17 0 0 1 2.5-1.9c.8-.5 1.7-1 2.8-1.3 1-.5 2.3-.7 3.6-.7a7 7 0 0 1 4.5 1.4c1.2 1 1.7 2.2 1.7 3.8l-.1 1.7a64.4 64.4 0 0 1-1.2 6l-2.2 10h-10.5l2.8-13.5.3-1.4.1-1.3c0-.5-.1-.9-.4-1.2-.2-.3-.6-.5-1.1-.5a3 3 0 0 0-1.8.7l-1.3 1.1-3.5 16.2H372l4.7-22.4h8.5l1 3.3h.3Zm18.7-3.3c1.3-.3 2.4-.6 3.4-1a12.6 12.6 0 0 0 5-3.1c.8-.8 1.6-1.7 2.5-2.9h5.3l-1.5 7h4l-.6 3.5H419l-2.2 10.1a45.4 45.4 0 0 0-.5 3.6c0 .7.2 1.2.7 1.3.5.2 1.5.3 2.9.3L419 41a106.4 106.4 0 0 1-8.9.2c-.8-.1-1.6-.3-2.3-.7-.6-.4-1.1-1-1.6-1.6-.3-.7-.5-1.6-.5-2.8v-1.6c0-.6.2-1.3.4-2l2.2-10.4h-4l.6-3.5Zm30.6 9h16.3l-1 4.8h-16.4l1-4.7Zm47.1-13.8a6.4 6.4 0 0 1-6.6-6.6 6.4 6.4 0 0 1 6.6-6.7 6.5 6.5 0 0 1 6.7 6.7 6.4 6.4 0 0 1-6.7 6.6Zm-6-6.6c0 1.7.6 3.2 1.7 4.3a5.8 5.8 0 0 0 4.3 1.7c1.8 0 3.2-.6 4.3-1.7a5.7 5.7 0 0 0 1.8-4.3c0-1.8-.6-3.2-1.8-4.3a5.7 5.7 0 0 0-4.3-1.8c-1.7 0-3.2.6-4.3 1.7a6 6 0 0 0-1.6 4.4Zm3 46c-2.2 0-4-.5-5.7-1.3a8.7 8.7 0 0 1-4.8-8 6.2 6.2 0 0 1 6.3-6.5c1.7 0 3.1.6 4.2 1.7 1.1 1 1.7 2.4 1.7 3.9 0 .2-.1.3-.3.3-.2 0-.3 0-.3-.3 0-1.4-.5-2.6-1.5-3.5-1-1-2.3-1.4-3.8-1.4-1.6 0-3 .5-4 1.5-1.1 1-1.7 2.5-1.7 4.3 0 2.5.9 4.5 2.6 6.2 1.7 1.6 4.1 2.4 7.3 2.4 3 0 5.3-.8 6.8-2.4 1.5-1.6 2.3-3.8 2.3-6.8V20.6a4.5 4.5 0 0 0-4.6-4.4h-2.9c-1.4 0-2.5.5-3.4 1.3-.8.9-1.2 1.9-1.2 3 0 .3-.1.4-.3.4-.2 0-.3-.1-.3-.3 0-1.4.5-2.5 1.4-3.5a5 5 0 0 1 3.8-1.5h2.8a5 5 0 0 1 3.8 1.5c1 1 1.5 2.1 1.5 3.5v22.7c0 3-.8 5.5-2.5 7.2-1.5 1.8-4 2.6-7.2 2.6Zm26.7-11.7c-2.8 0-5.2-.5-7.3-1.6a12.2 12.2 0 0 1-6.8-11.6c0-2.4.6-4.7 1.7-6.7 1.2-2 2.8-3.6 4.9-4.8 2-1.2 4.5-1.8 7.3-1.8h.8c2.7 0 5 .6 6.8 1.7 1.8 1.2 3.2 2.6 4.1 4.3 1 1.7 1.4 3.5 1.4 5.3a2.2 2.2 0 0 1-2.3 2.2h-12.7c-.3 0-.4-.1-.4-.3 0-.2.1-.3.4-.3H517c.5 0 .9-.2 1.2-.4.3-.4.5-.8.5-1.2a10.5 10.5 0 0 0-5.2-9 12 12 0 0 0-6.5-1.7h-.8c-2.7 0-5 .6-7 1.8-2 1.1-3.5 2.6-4.7 4.5-1 2-1.6 4-1.6 6.4a12.1 12.1 0 0 0 6.5 11 17.4 17.4 0 0 0 14.6 0c2.2-1 3.7-2.7 4.4-5l.3-.2c.2 0 .3 0 .3.2v.2a8.9 8.9 0 0 1-4.6 5.3 18 18 0 0 1-8 1.7Zm43.1 0c-2.8 0-5.2-.5-7.4-1.6a12.7 12.7 0 0 1-5-4.6c-1.1-2-1.7-4.3-1.7-6.9A13.7 13.7 0 0 1 542 17a16.4 16.4 0 0 1 13.2-.7c2 .7 3.5 1.8 4.8 3.2 1.2 1.4 2 3.1 2 5 .1 1.3 0 2.3-.6 3.3A5.8 5.8 0 0 1 556 31c-1.5 0-2.7-.3-3.7-.8-1-.6-1.7-1.3-2.1-2-.5-1-.7-1.7-.7-2.6 0-.2.1-.3.3-.3.2 0 .3.1.3.3 0 .8.2 1.5.6 2.2.4.7 1 1.3 2 1.8.8.5 2 .8 3.3.8 1.6 0 3-.6 4-1.7 1-1 1.4-2.4 1.3-4.1a7.5 7.5 0 0 0-1.9-4.7 11.3 11.3 0 0 0-4.5-3c-1.9-.8-3.9-1.1-6.1-1.1a12.3 12.3 0 0 0-11 6.3 13.6 13.6 0 0 0-.1 13c1.1 1.9 2.7 3.3 4.7 4.4 2 1 4.4 1.5 7.1 1.5 3 0 5.5-.6 7.6-1.6 2.1-1 3.6-2.7 4.3-4.8 0-.2.2-.2.3-.2l.3.1v.3c-.8 2.3-2.3 4-4.6 5.1a17.7 17.7 0 0 1-7.9 1.7Zm20.6-.5c-1.3 0-2.4-.5-3.3-1.4a5 5 0 0 1-1.4-3.6V5.6c0-1.5.5-2.7 1.5-3.6 1-1 2.2-1.5 3.8-1.5h2.8a5 5 0 0 1 5.2 5v15a8 8 0 0 1 3.3-4c1.6-1 3.3-1.4 5.2-1.4a9 9 0 0 1 4.7 1.2c1.4.7 2.4 1.8 3.2 3.1a9 9 0 0 1 1.2 4.7v11.6c0 1.5-.5 2.7-1.5 3.8-1 1-2.3 1.5-3.8 1.5h-1c-.3 0-.4-.1-.4-.3 0-.2.1-.4.3-.4h1a4.6 4.6 0 0 0 4.8-4.6V24a8.1 8.1 0 0 0-4.1-7.3 9.4 9.4 0 0 0-8.6-.1 7.6 7.6 0 0 0-3.2 2.7 7.9 7.9 0 0 0-1.1 4.4c0 .2-.1.3-.4.3-.2 0-.3-.1-.3-.3V5.6a4.3 4.3 0 0 0-4.5-4.5h-2.9c-1.3 0-2.5.5-3.3 1.3-.9 1-1.3 2-1.3 3.2V36c0 1.2.4 2.3 1.2 3.1.8.8 1.8 1.2 3 1.2h3.9c1.1 0 2.1-.3 2.9-1 .8-.7 1.2-1.7 1.2-3 0-.2 0-.3.3-.3.2 0 .3.1.3.3 0 1.4-.4 2.6-1.3 3.4-1 .9-2 1.3-3.4 1.3h-4Zm43.7.5c-2.8 0-5.2-.5-7.3-1.6a12.3 12.3 0 0 1-6.8-11.6c0-2.4.6-4.7 1.7-6.7 1.2-2 2.8-3.6 4.9-4.8 2-1.2 4.5-1.8 7.3-1.8h.8c2.7 0 5 .6 6.8 1.7 1.8 1.2 3.2 2.6 4.1 4.3 1 1.7 1.4 3.5 1.4 5.3 0 .6-.2 1.1-.7 1.6-.4.4-1 .6-1.6.6h-12.7c-.3 0-.4-.1-.4-.3 0-.2.1-.3.4-.3h12.7c.5 0 .9-.2 1.2-.4.3-.4.5-.8.5-1.2a10.5 10.5 0 0 0-5.2-9 12 12 0 0 0-6.5-1.7h-.8c-2.7 0-5 .6-7 1.8-2 1.1-3.5 2.6-4.6 4.5-1.1 2-1.7 4-1.7 6.4a12.1 12.1 0 0 0 6.5 11 17.4 17.4 0 0 0 14.6 0c2.2-1 3.7-2.7 4.4-5l.3-.2c.2 0 .3 0 .3.2v.2a8.9 8.9 0 0 1-4.6 5.3 18 18 0 0 1-8 1.7Zm21.4-.5a5 5 0 0 1-5.1-5V20.6c0-1.4.5-2.6 1.5-3.6s2.2-1.5 3.6-1.5h2.8c1.3 0 2.4.4 3.4 1.2.4.4.8.8 1 1.3.4.4.6 1 .6 1.8a6.6 6.6 0 0 1 6.5-4.8c2.3 0 4.1.7 5.5 2 1.3 1.3 2 3.1 2 5.4 0 1.5-.3 2.8-1 4-.5 1.2-1.3 2-2.5 2.6-1 .5-2 .8-3.2.8-1.1 0-2.2-.3-3.4-.9-.3-.1-.3-.3-.1-.5.1-.1.3-.2.4 0 2.2 1 4.2 1 6 .1 1-.5 1.8-1.3 2.3-2.3.6-1.1 1-2.4 1-3.8 0-2.1-.7-3.8-2-5a6.9 6.9 0 0 0-5-1.8c-1.2 0-2.3.3-3.3 1a6.7 6.7 0 0 0-3.1 5.6c0 .2-.1.3-.3.3-.2 0-.3 0-.3-.3v-1.7a4.3 4.3 0 0 0-1.5-3.3c-.9-.7-1.8-1-3-1h-2.8c-1.3 0-2.3.4-3.2 1.3-.8.8-1.3 1.9-1.3 3V36c0 1.3.5 2.3 1.3 3.2.9.8 2 1.2 3.2 1.2h2.8c1.3 0 2.3-.4 3.2-1.2.8-.9 1.3-2 1.3-3.2 0-.2 0-.3.3-.3.2 0 .3.1.3.3a5 5 0 0 1-5 5h-3Zm38 .5c-2.8 0-5.3-.5-7.4-1.6a12.7 12.7 0 0 1-5-4.6c-1.2-2-1.8-4.3-1.7-6.9a13.7 13.7 0 0 1 6.4-11.5c2-1.2 4.3-1.8 7-1.8 2.2 0 4.3.3 6.2 1 2 .8 3.6 2 4.8 3.3 1.3 1.4 2 3.1 2.1 5 .1 1.3-.1 2.3-.6 3.3s-1.3 1.8-2.2 2.4a7.4 7.4 0 0 1-6.8 0c-1-.6-1.7-1.3-2.2-2-.4-1-.6-1.7-.6-2.6 0-.2 0-.3.3-.3.2 0 .3.1.3.3 0 .8.2 1.5.6 2.2.4.7 1 1.3 1.9 1.8.9.5 2 .8 3.4.8 1.6 0 3-.6 4-1.7 1-1 1.4-2.4 1.3-4.1a7.5 7.5 0 0 0-2-4.7 11.3 11.3 0 0 0-4.5-3c-1.8-.8-3.8-1.1-6-1.1a12.3 12.3 0 0 0-11 6.3 13.7 13.7 0 0 0-.2 13c1.2 1.9 2.8 3.3 4.8 4.4 2 1 4.4 1.5 7 1.5 3 0 5.5-.6 7.7-1.6 2-1 3.5-2.7 4.3-4.8 0-.2.2-.2.3-.2l.2.1v.3c-.7 2.3-2.3 4-4.5 5.1a17.7 17.7 0 0 1-8 1.7Zm20.6-.5c-1.3 0-2.4-.5-3.3-1.4A5 5 0 0 1 689 36V5.6c0-1.5.4-2.7 1.4-3.6 1-1 2.2-1.5 3.8-1.5h2.8a5 5 0 0 1 5.2 5v15a8 8 0 0 1 3.4-4c1.6-1 3.3-1.4 5.2-1.4a9 9 0 0 1 4.6 1.2A8.5 8.5 0 0 1 720 24v11.6c0 1.5-.5 2.7-1.6 3.8-1 1-2.3 1.5-3.8 1.5h-1c-.2 0-.4-.1-.4-.3 0-.2.2-.4.4-.4h1a4.6 4.6 0 0 0 4.8-4.6V24a8.1 8.1 0 0 0-4.2-7.3 9.4 9.4 0 0 0-8.6-.1 7.6 7.6 0 0 0-3.1 2.7 7.9 7.9 0 0 0-1.2 4.4c0 .2 0 .3-.3.3-.2 0-.3-.1-.3-.3V5.6A4.3 4.3 0 0 0 697 1h-2.8c-1.4 0-2.5.5-3.4 1.3-.8 1-1.2 2-1.2 3.2V36c0 1.2.4 2.3 1.2 3.1.8.8 1.7 1.2 2.9 1.2h4c1 0 2-.3 2.8-1 .8-.7 1.2-1.7 1.2-3 0-.2.1-.3.4-.3.2 0 .3.1.3.3 0 1.4-.5 2.6-1.4 3.4-.9.9-2 1.3-3.4 1.3h-4Zm43.6.5c-2.7 0-5.1-.5-7.2-1.6a12.2 12.2 0 0 1-6.8-11.6c0-2.4.5-4.7 1.7-6.7 1.1-2 2.7-3.6 4.8-4.8 2.1-1.2 4.6-1.8 7.4-1.8h.7c2.8 0 5 .6 6.8 1.7 1.9 1.2 3.2 2.6 4.2 4.3.9 1.7 1.4 3.5 1.4 5.3a2.2 2.2 0 0 1-2.3 2.2h-12.8c-.2 0-.3-.1-.3-.3 0-.2 0-.3.3-.3h12.8c.5 0 .9-.2 1.2-.4.3-.4.4-.8.4-1.2a10.5 10.5 0 0 0-5.2-9 12 12 0 0 0-6.5-1.7h-.7c-2.7 0-5 .6-7 1.8-2 1.1-3.6 2.6-4.7 4.5-1 2-1.6 4-1.6 6.4 0 2.6.6 4.8 1.7 6.7 1.2 1.9 2.8 3.3 4.8 4.4 2 1 4.3 1.5 7 1.5 2.9 0 5.4-.6 7.6-1.6 2.1-1 3.6-2.7 4.4-5 0-.1.1-.2.3-.2.1 0 .2 0 .2.2v.2a8.9 8.9 0 0 1-4.6 5.3 18 18 0 0 1-8 1.7Zm33-.2c-2.7 0-4.5-2.3-4.5-6 0-3.6 1.8-5.9 4.5-5.9 1.5 0 2.7.8 3.3 2.2v-7h3V41H774l-.3-2a3.6 3.6 0 0 1-3.4 2.3Zm1-2.6c1.5 0 2.5-1.3 2.5-3.3 0-2-1-3.4-2.5-3.4s-2.5 1.3-2.5 3.4c0 2 1 3.3 2.5 3.3Zm13.8 2.6c-3.5 0-5.8-2.4-5.8-6s2.1-6 5.4-6c3 0 5 2.3 5 5.8v1.1h-7.4c0 1.8 1.2 3 2.8 3 1.3 0 2.3-.7 2.7-1.9l2.2.9c-.6 2-2.6 3.1-4.9 3.1Zm-2.8-6.9h4.5c0-1.8-.9-2.8-2.2-2.8-1.4 0-2.2 1-2.3 2.8Zm14.8 7c-2.8 0-4.9-1.4-5-4l2.6-.3c.1 1.4 1 2.2 2.4 2.2 1.1 0 2-.5 2-1.3 0-.7-.6-1.2-2-1.5l-1.5-.4c-2-.6-3-1.6-3-3.2 0-2.2 1.8-3.5 4.2-3.5 2.3 0 4.1 1.2 4.3 3.4l-2.6.4c0-1.2-.7-1.8-1.8-1.8-.9 0-1.5.6-1.5 1.2 0 .7.6 1 1.8 1.5l1.5.4c2.3.6 3.3 1.6 3.3 3.2 0 2.2-2 3.6-4.7 3.6Zm15.7 4.2h-3V29.7h2.6l.3 2c.6-1.5 2-2.3 3.4-2.3 2.7 0 4.5 2.3 4.5 6 0 3.6-1.8 5.9-4.4 5.9-1.6 0-2.7-.8-3.4-2.2v6.5Zm2.3-6.9c1.5 0 2.5-1.3 2.5-3.3 0-2.1-1-3.4-2.5-3.4s-2.4 1.3-2.4 3.4c0 2 1 3.3 2.4 3.3Zm13.7 2.6c-3.6 0-5.9-2.4-5.9-6s2.2-6 5.4-6c3 0 5 2.3 5 5.8v1.1H826c.1 1.8 1.2 3 2.9 3 1.2 0 2.2-.7 2.6-1.9l2.2.9c-.6 2-2.5 3.1-4.8 3.1Zm-3-6.9h4.7c-.1-1.8-1-2.8-2.2-2.8-1.4 0-2.3 1-2.4 2.8Zm15 7c-2.3 0-3.6-1.5-3.6-3.7V32h-2v-2.3h2v-3l2.9-.6v3.6h3.8V32h-3.8v5.1c0 1.1.5 1.8 1.4 1.8.8 0 1.4-.5 1.7-1.6l1.2 1.7c-.5 1.5-1.8 2.3-3.5 2.3Zm7.6-13.3c-1.1 0-1.8-.7-1.8-1.8 0-1 .7-1.7 1.8-1.7 1 0 1.8.7 1.8 1.7s-.8 1.8-1.8 1.8Zm1.4 12.9h-3V29.7h3V41Zm8 .3c-2.3 0-3.7-1.4-3.7-3.6V32h-1.9v-2.3h2v-3l2.9-.6v3.6h3.7V32h-3.7v5.1c0 1.1.5 1.8 1.4 1.8.8 0 1.4-.5 1.7-1.6l1.2 1.7c-.5 1.5-1.8 2.3-3.5 2.3Zm11.3 0c-3.6 0-5.9-2.4-5.9-6s2.1-6 5.4-6c3 0 5 2.3 5 5.8v1.1h-7.4c.1 1.8 1.2 3 2.9 3 1.2 0 2.2-.7 2.6-1.9l2.2.9c-.6 2-2.6 3.1-4.8 3.1Zm-3-6.9h4.6c0-1.8-.9-2.8-2.2-2.8-1.3 0-2.2 1-2.3 2.8Zm14.9 7c-2.7 0-4.8-1.4-5-4l2.7-.3c0 1.4 1 2.2 2.3 2.2 1.2 0 2-.5 2-1.3 0-.7-.6-1.2-2-1.5l-1.5-.4c-2-.6-3-1.6-3-3.2 0-2.2 1.8-3.5 4.3-3.5 2.2 0 4 1.2 4.3 3.4l-2.7.4c0-1.2-.7-1.8-1.7-1.8s-1.6.6-1.6 1.2c0 .7.6 1 1.8 1.5l1.5.4c2.3.6 3.3 1.6 3.3 3.2 0 2.2-2 3.6-4.7 3.6ZM895.4 28c-1 0-1.8-.7-1.8-1.8 0-1 .7-1.7 1.8-1.7 1 0 1.8.7 1.8 1.7s-.7 1.8-1.8 1.8ZM897 41h-3V29.7h3V41Zm6.1 0h-3V29.7h2.5l.4 2a3.6 3.6 0 0 1 3.4-2.3c1.6 0 2.7.9 3.2 2.3a4 4 0 0 1 3.6-2.3c2 0 3.3 1.4 3.3 3.8V41h-3v-7.3c0-1-.6-1.7-1.6-1.7-1.3 0-2 1-2 2.5V41h-3v-7.3c0-1-.6-1.7-1.7-1.7-1.3 0-2 1-2 2.5V41Zm19.4.2c-2.1 0-3.6-1.2-3.6-3.1 0-2 1.6-3.4 4.6-3.7l1.7-.2c.5 0 .8-.4.8-1 0-1-.7-1.6-1.8-1.6-1.3 0-2.1 1-2.2 2.2l-2.7-.5c0-2.3 2-4 4.9-4 3 0 4.7 1.8 4.7 4.4v4.7c0 .4.2.7.6.7.2 0 .5-.2.8-.5l.7 1.7c-.6.7-1.6 1-2.5 1-1.3 0-2.2-.8-2.4-1.8v-.3c-.8 1.3-2 2-3.6 2Zm1.1-2.1c1.4 0 2.4-1 2.4-2.7v-.6l-1.8.2c-1.6.2-2.3.9-2.3 1.7 0 .9.7 1.4 1.7 1.4Zm13.3 6.9c-2.3 0-4.3-1-5.4-2.3l1.3-2a4.8 4.8 0 0 0 3.8 1.8c2 0 3.3-1.3 3.3-3.3V39c-.6 1.2-2 2-3.4 2-2.6 0-4.3-2.2-4.3-5.7 0-3.6 1.7-5.9 4.3-5.9 1.5 0 2.8.9 3.4 2.2l.4-1.9h2.6v10.5c0 3.6-2.3 5.8-6 5.8Zm.7-7.3c1.5 0 2.4-1.4 2.4-3.4s-1-3.4-2.4-3.4c-1.5 0-2.5 1.3-2.5 3.4 0 2 1 3.4 2.5 3.4Zm13.8 2.6c-3.5 0-5.8-2.4-5.8-6s2.1-6 5.3-6c3.1 0 5.2 2.3 5.2 5.8l-.1 1.1h-7.5c.2 1.8 1.3 3 3 3 1.2 0 2.2-.7 2.6-1.9l2.2.9c-.6 2-2.6 3.1-4.9 3.1Zm-2.9-6.9h4.6c0-1.8-.9-2.8-2.2-2.8-1.4 0-2.2 1-2.4 2.8Zm14.9 7c-2.8 0-4.9-1.4-5-4l2.6-.3c.1 1.4 1 2.2 2.4 2.2 1.1 0 2-.5 2-1.3 0-.7-.6-1.2-2-1.5l-1.5-.4c-2-.6-3-1.6-3-3.2 0-2.2 1.8-3.5 4.2-3.5 2.3 0 4.1 1.2 4.3 3.4l-2.6.4c0-1.2-.7-1.8-1.8-1.8-.9 0-1.5.6-1.5 1.2 0 .7.6 1 1.8 1.5l1.5.4c2.3.6 3.3 1.6 3.3 3.2 0 2.2-2 3.6-4.7 3.6Zm20.4-20v-.6c0-.3 0-.6.2-1l.7-1c.3-.2.7-.3 1-.3.5 0 .8.3 1 .7l8.5 15.9 1.3-2.3a665.4 665.4 0 0 0 4.4-8l2.4-4.2c1.6-2.9 2.6-4.3 2.9-4.3.7 0 1.2.3 1.5.8.3.5.5.9.5 1.2v.5a1560 1560 0 0 1-9.9 20.7c-.7 1-1.4 1.6-2 1.6-.7 0-1.5-.5-2.4-1.6-.9-1-1.9-2.5-3-4.3-2-3.3-4.3-7.9-7-13.9Zm36.9 16c3 0 7.4-1.3 13.4-4 .4 0 .7 0 1 .4.2.2.3.5.3.8-1.3 2.3-4 4.1-7.8 5.4a18.7 18.7 0 0 1-10.7.7c-3.7-1-6-3.1-6.8-6.4l-.1-2.6a15.4 15.4 0 0 1 8.5-13c1.8-1 3.7-1.4 5.8-1.4a13.9 13.9 0 0 1 9.3 4.2 3.9 3.9 0 0 1 1 3.2c0 2-1 3.3-3 3.9-.8.2-1.8.3-3 .3l-7.3-.3c-2.4 0-4.3.6-5.5 1.6-.8.6-1.3 1.4-1.6 2.6.8 3 3 4.6 6.5 4.6Zm9-15.7c-.7-.5-1.5-.9-2.3-1.1-.8-.3-1.5-.4-2-.4a20.9 20.9 0 0 0-5.9 1.7c-2.4 1.1-3.5 2.2-3.5 3.4 2.7.3 4.7.4 6 .4a20 20 0 0 0 7.7-1c.8-.3 1.2-.7 1.2-1.2 0-.7-.4-1.2-1.2-1.8Zm29.3 14c1.4-.6 2.7-1.2 4-1.6 1.4-.5 2.6-.7 3.8-.7 1.2 0 1.8.3 1.8 1l-.1.9c-.1.3-.6.7-1.4 1.3a41 41 0 0 1-11.1 3.6 20.1 20.1 0 0 1-9.9.5c-1.3-.4-2.6-.8-3.8-1.5-2.7-1.4-4.1-3.5-4.1-6.2v-1.3a12.5 12.5 0 0 1 3-6c1-1.1 2.2-2.2 3.6-3.1a23 23 0 0 1 11.6-4.3 26.5 26.5 0 0 1 4.7.5c.8.4 1.3 1.3 1.3 2.6 0 .8-.6 1.6-1.8 2.4l-.8.5c-.1-.8-.4-1.4-.6-2-.3-.5-.9-.8-1.8-.8-4 .9-7.4 2.1-10.3 3.8-3.3 2-4.9 4-4.9 6.1v.8c0 2.2.9 3.7 2.6 4.6 1.2.7 2.8 1 4.8 1s3.7-.2 5.2-.6l4.2-1.6Zm20 .4.1-8.1c0-1.3 0-2.4-.3-3.3h-7.9l-.1-3.5h7.6V8l.6-1c.5-.4.9-.7 1.2-.7l.9.1c.2.1.5.3.7.8.6 2.2.8 5.6.8 10 0 1.2 0 2.3.2 3.4 1-.2 2.2-.2 3.2-.2h2.7l1.8-.1-.2 3.6-7.4-.2.2 17.5a4 4 0 0 1-1.5.4c-1.7 0-2.6-1.8-2.6-5.6Zm14.7-4.8c0-4 1.7-7.2 5.1-9.6 2.8-2 6-3.1 10-3.5h1.4c.7 0 1.7.2 3 .6a9 9 0 0 1 5.6 5c.5 1 .6 1.8.6 2.5v1.4c0 4.2-1.6 7.5-4.8 10a18 18 0 0 1-11.2 3.3c-3.2 0-5.6-.7-7.3-2.2-1.6-1.5-2.4-4-2.4-7.5Zm3.5 1.2c0 2.1.5 3.6 1.6 4.3.9.6 2.3.8 4.3.8s3.8-.1 5.3-.4a12 12 0 0 0 4-1.6c2.6-1.6 3.9-4.2 3.9-7.6 0-2-.6-3.7-1.7-5a5.8 5.8 0 0 0-4.6-2l-4 .7c-1.4.3-2.6.8-3.8 1.6-2.6 1.7-4.3 4.7-5 9.2Zm49.4-10a9.2 9.2 0 0 0-5.5-1.6c-2.1 0-4 .4-5.8 1.2a13.6 13.6 0 0 0-7 5.5c-.5 1-.8 2-.8 3.2v1.7c0 1 .1 2.2.5 3.8.3 1.6.5 3.2.5 4.8-.7 0-1.3 0-1.7.2a4 4 0 0 1-1.2.2 1 1 0 0 1-.8-.4l-.7-1.5-.2-1.8a175.4 175.4 0 0 0-.9-7.8 1068 1068 0 0 0-1.4-12.3c0-.8.6-1.2 1.8-1.2a2 2 0 0 1 1.7 1c.4.5.7 1.2 1 2l.4 2.2.3 1.6c4.4-4 10-6 16.6-6a56.2 56.2 0 0 1 3.1 0c.3 0 .6.2 1 .6.3.4.5 1 .5 1.7 0 1.7-.5 2.6-1.4 2.8Zm8.3-5.4c.4 6.3.8 13.7 1.1 22-.2 1-1 1.6-2.4 1.6l-1.2-.2c-.4-.2-.6-.4-.7-.7V17.1h3.2Zm-4.7-6.9c0-1.2.7-1.8 2-1.8 1 0 1.7.2 2.3.6l.1 1.1c0 .4 0 .7-.4 1-.2.4-.6.6-1.2.6a4 4 0 0 1-1.6-.4c-.5-.3-1-.6-1.2-1.1Zm18.4 27.2c3 0 7.4-1.3 13.4-4 .4 0 .7 0 1 .4.2.2.3.5.3.8-1.4 2.3-4 4.1-7.8 5.4a18.7 18.7 0 0 1-10.7.7c-3.8-1-6-3.1-6.9-6.4v-2.6a15 15 0 0 1 3.7-9.3c1.3-1.6 2.9-2.9 4.7-3.8 1.8-.9 3.8-1.3 5.9-1.3a13.9 13.9 0 0 1 9.3 4.2 3.8 3.8 0 0 1 1 3.2c0 2-1 3.3-3 3.9-.9.2-1.9.3-3 .3l-7.3-.3c-2.4 0-4.3.6-5.6 1.6-.7.6-1.2 1.4-1.5 2.6.8 3 3 4.6 6.5 4.6Zm9-15.7a7.7 7.7 0 0 0-4.4-1.5 21.3 21.3 0 0 0-5.9 1.7c-2.3 1.1-3.5 2.2-3.5 3.4 2.7.3 4.8.4 6.1.4a20 20 0 0 0 7.7-1c.8-.3 1.2-.7 1.2-1.2 0-.7-.4-1.2-1.2-1.8Zm9.7-.4-.3-4.9-.1-3.2c0-.7-.3-2.4-.8-5.1l.8-1.2c.4-.4.8-.6 1.3-.6 1.2 0 2.1 5 2.8 15 .3 5.8.5 11.6.5 17.4 0 1.5-1.1 2.3-3.3 2.3h-.4c0-1.8 0-4-.2-6.8l-.2-7.1-.1-5.8Zm24.6 6.6c3.7 0 5.6 1 5.6 2.8 0 1.4-1 3.1-3.1 5-3.1 2.8-7.3 5-12.5 6.7-.2 0-.5-.2-.8-.7a13 13 0 0 0-1-1.5c4-1.3 7.1-2.9 9.6-4.7 1.7-1.2 2.6-2.2 2.6-3 0-.8-1-1.2-3-1.2s-5 .5-8.8 1.4a7 7 0 0 1-4.6-1.8c-1-1-1.6-2.1-1.6-3.2 0-1 .3-2 .9-3 .6-.8 1.4-1.7 2.4-2.5a23.6 23.6 0 0 1 17-4.2c.7 0 1.2.4 1.3 1 .2.8.2 2 .2 3.6a16 16 0 0 0-6.7-1.4c-3.1 0-5.7.6-7.7 1.9-2.1 1.2-3.2 2.8-3.3 4.8 0 1 .7 1.4 2.1 1.4l3.7-.4c3.2-.7 5.8-1 7.7-1Zm33.4 13.8c-6.3 0-10.5-5.4-10.5-14s4.1-14 10.5-14c3.5 0 6.4 1.8 7.9 5V2.5h7V41h-6l-.7-4.5a8.5 8.5 0 0 1-8.2 5.2Zm2.4-6c3.5 0 5.9-3.2 5.9-8s-2.4-8-6-8c-3.5 0-5.8 3.2-5.8 8s2.3 8 5.9 8Zm32.8 6.2c-8.4 0-13.8-5.7-13.8-14.4 0-8.5 5-14 12.6-14 7.3 0 12 5.4 12 13.6l-.1 2.6h-17.5c.3 4.3 2.9 7 6.8 7 2.9 0 5.2-1.7 6.2-4.3l5.3 2c-1.5 4.6-6.1 7.5-11.5 7.5Zm-6.9-16.5h10.9c-.3-4.2-2.2-6.6-5.2-6.6-3.3 0-5.3 2.5-5.7 6.6ZM19 108.1a42.1 42.1 0 0 0-16.5 0c-.4 0-.7-.2-1-.4-.2-.3-.3-.6-.3-1 0-.7.3-1.2 1-1.3l4-.6V85.4a67 67 0 0 1-3.5-.1c-1 0-1.6-.2-1.8-.5-.2-.2-.4-.5-.4-.9s.2-.7.4-1c.3-.2.6-.3 1-.3l4.3.1v-1c0-3.8 1.3-6.8 4-9a18 18 0 0 1 12-3.6h11.6c1 0 1.6.4 1.6 1.3v34.9a40.6 40.6 0 0 0 2.2.3c.8.2 1.2.6 1.2 1.3 0 .4-.1.7-.4 1-.3.3-.6.4-.9.4h-.3c-4.3-.8-9-.7-13.8.2H23c-.4 0-.7-.2-1-.4-.2-.3-.3-.6-.3-1 0-.6.4-1 1-1.3l3.6-.5V71.5h-4c-2 0-3.5.7-4.7 2.1-1.7 2-2.6 5-2.6 9v.1l4.3-.1c.4 0 .7 0 1 .3.2.3.4.6.4 1s-.1.7-.4 1c-.2.2-.8.3-1.7.4H15v19.5l3.5.5c.8.1 1.3.3 1.5.6l.2 1c0 .3-.1.6-.4.8-.3.3-.6.4-.9.4Zm-3.4-35.7c-2.2.5-4 1.8-5.1 3.7-1.1 1.7-1.6 3.7-1.6 6.1v22.4h3.5V83c0-5 1.1-8.5 3.2-10.6Zm17.1-.9H29v33.6h3.7V71.5Zm18.7 13.7c-4.4 1.7-6.7 5-6.7 10.2a11 11 0 0 0 5.8 9.8 15.8 15.8 0 0 1-2.2-8.9c0-2.6.2-4.6.6-6 .6-2 1.4-3.7 2.5-5Zm-.4 10c1.9.6 4 1 6.5 1s4.9-.6 7.2-1.6V94c0-4-1.3-6.9-4-8.4-.9-.6-2-1-3.3-1.1-4.1.4-6.2 4-6.4 10.6Zm16.3-1.1v1.5c-.2 1.4-2.4 2.4-6.7 3l-4.4.2c-1.5 0-3.3-.2-5.2-.8.4 3.9 1.7 6.5 3.9 7.8.8.5 1.6.8 2.4.8.8 0 1.4 0 2-.2.5 0 1-.3 1.6-.5 1.2-.4 2-1 2.5-1.7a1.3 1.3 0 0 1 2-.1c.2.3.4.6.4 1 0 .3-.1.5-.4.7-.7 1.2-2 2-4 2.7a14.8 14.8 0 0 1-10.6-.3c-3.6-1.4-6.1-3.9-7.6-7.3a15.5 15.5 0 0 1-.2-11.2c.7-1.8 1.6-3.2 2.8-4.3 2.4-2.4 5.8-3.6 10-3.6 7.7.3 11.5 4.4 11.5 12.3ZM52 73l-2.5-4.7h-2.7L52 73Zm-9.5-5c-.4-.3-.5-.6-.5-1s.1-.7.4-1c.2-.2.6-.4 1-.4h7c.4 0 .8.2 1.1.7l6.5 12 .1.8c0 .2-.1.5-.4.8-.2.2-.5.4-.9.4s-.7-.1-1-.3L42.5 68Zm38.5 38a13.8 13.8 0 0 1-3.4-9.9c0-2.7.5-5.2 1.4-7.7.8-2.3 1.8-3.9 3-4.6-5.5 1.3-8.2 5.3-8.2 12 0 4 1.4 6.9 4.1 8.8 1 .6 2 1.1 3.1 1.4Zm14.8-15c0 .4-.2.6-.4.9a1.3 1.3 0 0 1-1.8 0c-.2-.3-.4-.7-.4-1.2 0-.6-.2-1.3-.5-2-.3-.9-.7-1.6-1.2-2.3-1.2-1.5-2.6-2.2-4-2.2-1.7 0-3.2.7-4.4 2.1a13.8 13.8 0 0 0-2.7 7.5l-.1 2.7c0 1 .1 2 .4 3.2.2 1.2.6 2.3 1.2 3.2 1.2 2.1 3 3.2 5 3.2 1.7 0 3.2-.7 4.6-2 1.2-1.4 2-2.8 2.4-4.3.2-.8.6-1.1 1.3-1.1.4 0 .7.1 1 .4.2.3.4.5.4.8l-.2.8a10.8 10.8 0 0 1-1.7 3.4 12.4 12.4 0 0 1-3.9 3.5c-1.9 1-3.9 1.6-6 1.6-2 0-4-.3-5.6-1-1.6-.6-3-1.5-4.2-2.7a13 13 0 0 1-3.8-9.7c0-4.4 1.1-8 3.4-10.7 2.5-2.8 5.7-4.3 9.9-4.3 2 0 3.7.4 5.4 1.2 1.6.8 3 2 4 3.5l1-5.2c0-.3.1-.6.3-.8.3-.2.6-.3 1-.3s.7.1.9.4l.3.9v.2L95.7 91Zm14.6-16.5c-.8.2-2 .2-3.5.2h-.2v30h3.7V74.6ZM113 86a9 9 0 0 1 8-4.5c3.2 0 5.6 1.2 7.2 3.6 1.4 2 2 4.7 2 8.1 0 3.4-.4 7.2-1.3 11.4l2.6.2c1.1.2 1.7.6 1.7 1.4 0 .4-.1.7-.4 1l-.8.4-.7-.1a24 24 0 0 0-8.4.3h-.3c-.2 0-.5-.1-.7-.4-.3-.3-.4-.6-.4-.9 0-.7.4-1.2 1-1.3a22 22 0 0 1 3.7-.5c1-4.3 1.4-8 1.4-11 0-4.5-1.1-7.5-3.4-8.8-.8-.5-1.8-.7-2.9-.7-1 0-1.9.1-2.6.4a9.3 9.3 0 0 0-3.5 2.8 11.6 11.6 0 0 0-2.2 6.3V105c1 0 2 .2 2.8.4.8.2 1.4.4 1.6.6.2.3.3.6.3 1 0 .3-.2.6-.4.8-.3.3-.6.4-1 .4h-.2a42 42 0 0 0-15.1 0h-.3c-.4 0-.7-.2-1-.4l-.3-.9c0-.3 0-.6.3-.9.2-.2.5-.4 1-.5a20.6 20.6 0 0 1 3.3-.5V74.7l-4-.3c-.3 0-.6-.2-.8-.4-.2-.3-.3-.6-.3-1s.2-.7.5-.9l.9-.3h.7a202.9 202.9 0 0 0 5.9.4c1.8 0 3.3-.1 4.5-.4h.3c.4 0 .7.1 1 .4.2.3.3.5.3.9V86Zm32.7-.8c-4.5 1.7-6.7 5-6.7 10.2a10.9 10.9 0 0 0 5.7 9.8 15.8 15.8 0 0 1-2.2-8.9c0-2.6.2-4.6.6-6 .6-2 1.5-3.7 2.6-5Zm-.5 10c2 .6 4.1 1 6.6 1 2.4 0 4.8-.6 7.1-1.6V94c0-4-1.3-6.9-4-8.4-.8-.6-2-1-3.2-1.1-4.1.4-6.3 4-6.5 10.6Zm16.4-1.1v1.5c-.3 1.4-2.5 2.4-6.8 3l-4.4.2c-1.5 0-3.2-.2-5.1-.8.4 3.9 1.6 6.5 3.8 7.8.9.5 1.7.8 2.4.8.8 0 1.5 0 2-.2.6 0 1.1-.3 1.6-.5 1.2-.4 2-1 2.5-1.7a1.3 1.3 0 0 1 2-.1c.3.3.4.6.4 1 0 .3-.1.5-.3.7-.7 1.2-2.1 2-4 2.7a14.8 14.8 0 0 1-10.7-.3 13.8 13.8 0 0 1-8.7-13c0-2 .4-3.9 1-5.6.7-1.7 1.6-3 2.8-4.2 2.4-2.4 5.7-3.6 10-3.6 7.6.3 11.5 4.4 11.5 12.3Zm26.6 8.3a5 5 0 0 0 .3-1.8c0-.6-.1-1.2-.4-1.7-.3-.5-.6-1-1.1-1.3l-1.6-1a14 14 0 0 0-3.7-1.1 323.8 323.8 0 0 1-8-2.1l-2-1c-1.1-1-1.9-2-2.2-3.5-.4 1-.6 1.9-.6 2.7 0 1 .1 1.7.4 2.3l1.3 1.6a8 8 0 0 0 1.8 1.2 16.7 16.7 0 0 0 5.3 1.4 41.8 41.8 0 0 1 6.3 1.3l1.9.7c1.3.6 2 1.4 2.3 2.3Zm-3-15c-2.1-1.7-5-2.6-8.3-2.6-2 0-3.5.6-4.4 1.7-.3.4-.5 1-.5 1.5s.2 1 .6 1.4c.3.4.7.7 1.3 1 .5.4 1 .6 1.7.8a24.4 24.4 0 0 0 3.7 1 92.6 92.6 0 0 1 5 1.2c1.2.3 2.4.8 3.4 1.5 2.3 1.4 3.5 3.4 3.5 5.8 0 2.7-1.3 5-3.9 6.6a13.6 13.6 0 0 1-7.4 2.2c-4.5 0-8.2-1.3-11.2-4v1.8c0 .4-.1.7-.3 1a1 1 0 0 1-1 .4c-.3 0-.6-.2-.9-.4-.3-.2-.4-.5-.4-.8v-2.1a44.2 44.2 0 0 1 .2-5.4l.4-.7c.2-.2.6-.3 1-.3.3 0 .6.1.9.4l.3.9v.1l-.1 1.7c3 3.1 6.6 4.7 11 4.7 2 0 3.7-.3 5-1 .8-.5 1.2-1 1.2-1.7 0-1.4-2.3-2.4-6.8-3.1l-2-.2-3.4-.8a15 15 0 0 1-3.8-1.7c-2.5-1.7-3.8-3.8-3.8-6.5 0-2.9 1.1-5.2 3.4-7a11 11 0 0 1 7.3-2.6c3.6 0 6.8.9 9.3 2.6.7-1.5 1.2-2.5 1.7-2.7l.8-.1c.3 0 .5.1.8.4.2.2.4.5.4.8 0 .3-.2.8-.6 1.5-1.1 1.9-1.8 4-2.1 6.3 0 .3-.2.6-.5.8-.2.2-.5.4-.9.4-.3 0-.7-.2-.9-.5-.3-.2-.4-.6-.4-.9v-.2c.2-1 .4-2.1.8-3.2Zm11.3 28.4.5-2c3.6 1 6.5-1.6 6.7-5.9-3.5 1.7-6.6-.4-6.6-3.5a4 4 0 0 1 4.1-4c2.7 0 4.6 2.2 4.6 6.4 0 6.5-4 10.3-9.4 9Zm42-38.5v-7.7h8v7.7h-8ZM225.9 87v-5.2h19.7v28.8c0 4.3-2.7 7.4-7.4 7.4h-12.3V113h12.6c1 0 1.3-.5 1.3-1.3V87h-13.9Zm54.5 6.4v3h-17.7c0 5.2 2.1 6.9 5.9 6.9h.3c2.8 0 4.7-.9 5.6-3.2h5.6c-1.3 5.5-5.6 8.3-11.2 8.3h-.3c-6.7 0-11.5-4-11.5-12v-3c0-8 4.8-12.1 11.5-12.1h.3c6.7 0 11.5 4 11.5 12.1Zm-11.5-7h-.3c-3.5 0-5.6 1.5-5.8 6h12c-.3-4.5-2.4-6-5.9-6Zm62.7 22h-.1c-7.3 0-11.6-3-11.8-9.2h5.6c0 3.2 1.5 4.5 6.1 4.5h.2c3.8 0 5.4-1.1 5.4-3.2 0-2.5-2.8-3-6.3-3.7-4.9-1-10.5-2.2-10.5-7.8 0-4.7 3.7-7.7 10.3-7.7h.2c7 0 10.9 3.1 11.1 9H336c0-3-1.5-4.3-5.4-4.3h-.1c-3.8 0-4.9 1.3-4.9 3 0 2.2 2.7 2.9 6 3.5 5 1 10.8 2 10.8 7.9 0 5-4 8-10.9 8ZM372 92V103h4.3v5H367l-.5-4.5h-.6a8.7 8.7 0 0 1-8.3 5h-.2c-4.5 0-7.6-2.9-7.6-7.2v-.2c0-4.4 3-6.7 9-7.3l7.6-.9v-.7c0-4.2-1.6-5.7-4.6-5.7h-.2c-2.6 0-4.9 1-5.2 4.8h-5.8c.7-6.8 5.2-9.8 11.2-9.8h.2c6.5 0 10 3.5 10 10.6Zm-13.4 11.7h.3c3.6 0 7.4-2.5 7.5-7l-6.7.8c-3.4.4-4.5 1.6-4.5 3.3v.2c0 1.7 1.3 2.7 3.4 2.7Zm32.3-34h8v7.6h-8v-7.7Zm8.5 33.2h7.8v5h-7.8c-4.6 0-7.4-3-7.4-7.3V87h-9.4v-5.2h15.2v19.3c0 1.3.3 1.7 1.6 1.7Zm25.8 5.6h-.2c-7.2 0-11.5-3-11.7-9.2h5.6c0 3.2 1.4 4.5 6 4.5h.2c3.8 0 5.5-1.1 5.5-3.2 0-2.5-2.8-3-6.4-3.7-4.9-1-10.5-2.2-10.5-7.8 0-4.7 3.8-7.7 10.4-7.7h.1c7 0 10.9 3.1 11.2 9h-5.7c-.1-3-1.5-4.3-5.4-4.3h-.2c-3.7 0-4.9 1.3-4.9 3 0 2.2 2.7 2.9 6.1 3.5 5 1 10.7 2 10.7 7.9 0 5-4 8-10.8 8ZM488 77.3v-7.7h8v7.7h-8ZM475.3 87v-5.2h19.6v28.8c0 4.3-2.7 7.4-7.4 7.4h-12.2V113h12.5c1 0 1.3-.5 1.3-1.3V87h-13.8Zm52.5 5v10.8h4.3v5h-9.3l-.5-4.5h-.6a8.7 8.7 0 0 1-8.3 5h-.2c-4.5 0-7.7-2.9-7.7-7.2v-.2c0-4.4 3-6.7 9.1-7.3l7.6-.9v-.7c0-4.2-1.6-5.7-4.6-5.7h-.2c-2.6 0-4.9 1-5.2 4.8h-5.8c.7-6.8 5.2-9.8 11.2-9.8h.2c6.5 0 10 3.5 10 10.6Zm-13.4 11.6h.3c3.6 0 7.4-2.5 7.5-7l-6.7.8c-3.5.4-4.5 1.6-4.5 3.3v.2c0 1.7 1.3 2.7 3.4 2.7ZM541 108h-5.3V82h5.3v3.4h.6c.5-2.4 2.3-4 4.7-4h.2c2.2 0 4.1 1.4 5 4h.5c.9-2.4 2.6-4 5-4h.3c3 0 5.5 2.3 5.5 7V108h-5.3V89.6c0-2.4-1-3.2-2.3-3.2h-.2c-1.7 0-3 1.1-3 4V108h-5.3V89.6c0-2.4-1-3.2-2.4-3.2h-.2c-1.7 0-3.1 1.1-3.1 4V108ZM590 92V103h4.4v5H585l-.4-4.5h-.6a8.7 8.7 0 0 1-8.3 5h-.2c-4.6 0-7.7-2.9-7.7-7.2v-.2c0-4.4 3-6.7 9.1-7.3l7.6-.9v-.7c0-4.2-1.6-5.7-4.6-5.7h-.2c-2.7 0-5 1-5.2 4.8h-5.9c.7-6.8 5.2-9.8 11.3-9.8h.1c6.6 0 10 3.5 10 10.6Zm-13.3 11.7h.2c3.6 0 7.5-2.5 7.6-7l-6.7.8c-3.5.4-4.5 1.6-4.5 3.3v.2c0 1.7 1.2 2.7 3.4 2.7Zm32.3-34h8v7.6h-8v-7.7Zm8.5 33.2h7.7v5h-7.7c-4.7 0-7.4-3-7.4-7.3V87h-9.4v-5.2h15.1v19.3c0 1.3.3 1.7 1.7 1.7Zm25.7 5.6h-.1c-7.3 0-11.6-3-11.8-9.2h5.6c0 3.2 1.5 4.5 6.1 4.5h.2c3.8 0 5.4-1.1 5.4-3.2 0-2.5-2.8-3-6.3-3.7-4.9-1-10.5-2.2-10.5-7.8 0-4.7 3.7-7.7 10.3-7.7h.2c7 0 10.9 3.1 11.1 9h-5.7c0-3-1.5-4.3-5.4-4.3h-.1c-3.8 0-5 1.3-5 3 0 2.2 2.8 2.9 6.2 3.5 5 1 10.7 2 10.7 7.9 0 5-4 8-10.9 8Zm29.9-7.7v-12c0-1.5.7-3 2-4.4a8.2 8.2 0 0 1 6.3-2.6v1.9a6 6 0 0 0-5.4 3c-.6 1-1 2-1 2.8v10.7c0 1.3.7 2.6 2 4a6 6 0 0 0 4.4 1.9v2a8 8 0 0 1-8.3-7.3Zm10.4 7.2v-2c2.1 0 3.8-.9 5.1-2.9.6-1 1-2 1-2.8V89.5c0-1.4-.7-2.8-2-4.1a5.8 5.8 0 0 0-4.1-1.7v-2c3 0 5.3 1.3 6.9 3.8a6.2 6.2 0 0 1 1.1 3.4v12c0 1.5-.7 3-2 4.5a8 8 0 0 1-6 2.6Zm18.1-37h2l2 7.7h-1.5l-2.5-7.7Zm-6.2 30V82h2v18.9c0 1.4.8 2.7 2.2 3.9 1.3 1 2.7 1.5 4.2 1.5v2a8.2 8.2 0 0 1-7.2-3.7 6.3 6.3 0 0 1-1.2-3.5Zm10.6 7.2v-2c2.2 0 4-.9 5.2-2.6.8-1 1.2-1.9 1.2-2.8v-19h2V101c0 1.5-.7 3-2 4.5a8.6 8.6 0 0 1-6.4 2.7Zm44.5 1c-10.7 0-17.8-7.4-17.8-18.6 0-10.9 6.5-18 16.3-18 9.4 0 15.5 6.9 15.5 17.6 0 1.2 0 2.5-.2 3.2h-22.6c.4 5.6 3.8 9 8.8 9 3.7 0 6.7-2 8-5.5l6.8 2.6c-1.9 6-7.9 9.6-14.8 9.6Zm-8.8-21.3h14c-.4-5.4-2.8-8.5-6.8-8.5-4.2 0-6.7 3.2-7.2 8.5Zm40.6 20h-9V58.4h9V108Zm18.4 0h-9V58.4h9V108Zm26 1.2c-10.7 0-17.8-7.3-17.8-18.5 0-10.9 6.5-18 16.3-18 9.5 0 15.6 6.9 15.6 17.6 0 1.2 0 2.5-.3 3.2H818c.4 5.6 3.8 9 8.8 9 3.8 0 6.8-2 8-5.5l6.8 2.6c-1.9 6-7.8 9.6-14.8 9.6ZM818 88h14c-.4-5.4-2.8-8.5-6.7-8.5-4.3 0-6.8 3.2-7.3 8.5Zm45.1 21.1c-8.2 0-14.7-4-15-11.7l8-1.1c.2 4.1 3.1 6.6 7.2 6.6 3.4 0 6-1.6 6-4 0-2.1-1.9-3.4-6-4.6l-4.5-1.2c-6.5-1.7-9.2-4.7-9.2-9.7 0-6.5 5.3-10.6 12.8-10.6 7 0 12.6 3.7 13.2 10.4l-8 1.2c-.2-3.6-2.3-5.5-5.4-5.5-2.8 0-4.7 1.7-4.7 3.8 0 2 1.7 3.2 5.5 4.3l4.5 1.3c7 1.9 10 5 10 9.9 0 6.7-6 11-14.4 11Zm44.6-.2c-6.4 0-11.4-3.2-11.7-9l6.2-1c.2 3.2 2.5 5.2 5.6 5.2 2.7 0 4.7-1.3 4.7-3.2 0-1.6-1.5-2.6-4.7-3.5l-3.5-1c-5-1.3-7-3.6-7-7.5 0-5 4-8.2 9.9-8.2 5.3 0 9.7 2.9 10.2 8l-6.2 1c-.2-2.8-1.9-4.2-4.2-4.2-2.2 0-3.6 1.3-3.7 2.9 0 1.5 1.3 2.5 4.3 3.3l3.5 1c5.4 1.5 7.8 3.9 7.8 7.7 0 5.2-4.7 8.5-11.2 8.5Zm29.4 0c-8 0-13-5.5-13-14.1 0-8.7 5-14.1 13-14.1s13 5.4 13 14c0 8.7-5 14.3-13 14.3Zm0-5.9c3.7 0 6-3 6-8.2 0-5.1-2.3-8.2-6-8.2s-6 3-6 8.2c0 5.1 2.3 8.2 6 8.2Zm34.4-22.2c4.9 0 7.8 3.1 7.8 8.4V108h-6.9V90.6c0-2.6-1.5-4.2-3.8-4.2-3.1 0-5.1 2.2-5.1 5.7V108h-7V81.4h5.8l.9 4.3a9 9 0 0 1 8.3-5Zm25.8 28.1c-5.6 0-8.8-3.4-8.8-8.7V86.8h-4.6v-5.4h4.5v-7.1l7-1.6v8.7h8.9v5.4h-8.9v12c0 2.7 1.3 4.3 3.3 4.3 2 0 3.4-1.2 4.1-3.7l2.9 4c-1.3 3.4-4.4 5.4-8.4 5.4Zm13.5 7 .5-2c3.7 1 6.5-1.6 6.8-5.9-3.5 1.7-6.6-.4-6.6-3.5a4 4 0 0 1 4.1-4c2.7 0 4.5 2.2 4.5 6.4 0 6.5-3.9 10.3-9.3 9Zm41.8-17.4h-9.7c0 2.4.7 4.3 1.8 5.6a4 4 0 0 0 3.2 1.6c.8 0 1.5-.2 2-.6.7-.4 1.4-1.2 2-2.3l.7.4c-1 2-2 3.4-3.2 4.2a7 7 0 0 1-4 1.2c-2.7 0-4.7-1-6-3a10.7 10.7 0 0 1-1.7-6.1c0-3 .8-5.4 2.4-7.1a7.4 7.4 0 0 1 5.7-2.7 6 6 0 0 1 4.7 2.3c1.3 1.4 2 3.6 2.1 6.5Zm-4.7-1.2c0-2 0-3.5-.3-4.3-.2-.7-.6-1.3-1-1.7-.3-.2-.6-.3-1-.3-.8 0-1.3.3-1.7 1a8.3 8.3 0 0 0-1.1 4.6v.7h5.1Zm14-15v22c0 1.3 0 2.1.4 2.5.3.3.9.5 1.7.6v.7h-9.6v-.7c.8 0 1.3-.3 1.7-.7.3-.3.4-1 .4-2.3V85.8c0-1.2-.1-2-.4-2.3-.3-.4-.9-.6-1.7-.6v-.7h7.4Zm10.8 0v22c0 1.3.1 2.1.4 2.5.3.3.9.5 1.8.6v.7h-9.7v-.7c.8 0 1.4-.3 1.8-.7.2-.3.4-1 .4-2.3V85.8c0-1.2-.2-2-.5-2.3-.3-.4-.8-.6-1.7-.6v-.7h7.5Zm19 16.2h-9.8c.1 2.4.7 4.3 1.9 5.6a4 4 0 0 0 3.1 1.6c.8 0 1.5-.2 2.1-.6.6-.4 1.3-1.2 2-2.3l.7.4c-1 2-2 3.4-3.2 4.2a7 7 0 0 1-4 1.2c-2.7 0-4.7-1-6-3-1.2-1.7-1.7-3.7-1.7-6.1 0-3 .8-5.4 2.4-7.1a7.4 7.4 0 0 1 5.6-2.7 6 6 0 0 1 4.7 2.3c1.3 1.4 2 3.6 2.2 6.5Zm-4.7-1.2c0-2-.1-3.5-.4-4.3-.2-.7-.5-1.3-1-1.7-.3-.2-.6-.3-1-.3-.7 0-1.3.3-1.7 1a8.3 8.3 0 0 0-1.1 4.6v.7h5.2Zm18.2-7.5.3 6h-.7c-.8-1.8-1.6-3-2.4-3.6a4 4 0 0 0-2.5-1c-.5 0-1 .1-1.3.5-.4.3-.6.7-.6 1.2 0 .3.2.7.4 1 .4.5 1.5 1.4 3.4 2.7 1.9 1.2 3.1 2.3 3.7 3.2.6.9.9 1.8.9 3 0 1-.3 1.9-.8 2.9-.4 1-1.1 1.6-2 2.1a6 6 0 0 1-3 .8c-.9 0-2-.3-3.4-.8l-.8-.2c-.5 0-.8.3-1 1h-.7l-.3-6.4h.6c.6 1.6 1.4 2.9 2.4 3.7 1 .9 2 1.3 2.8 1.3a2 2 0 0 0 1.5-.6c.4-.4.6-.8.6-1.3 0-.7-.2-1.2-.6-1.6-.4-.5-1.2-1.1-2.5-2a20 20 0 0 1-3.8-3.1c-.8-1-1.3-2.2-1.3-3.5 0-1.3.5-2.6 1.5-3.7.9-1.1 2.3-1.7 4-1.7 1 0 2 .3 2.9.7l.8.3.5-.1.7-.8h.7Zm25 0 .2 6h-.7c-.7-1.8-1.5-3-2.4-3.6a4 4 0 0 0-2.4-1c-.6 0-1 .1-1.4.5a1.6 1.6 0 0 0-.2 2.2c.5.5 1.6 1.4 3.5 2.7 1.8 1.2 3 2.3 3.6 3.2.6.9 1 1.8 1 3 0 1-.3 1.9-.8 2.9s-1.2 1.6-2.1 2.1a6 6 0 0 1-3 .8c-.8 0-2-.3-3.4-.8l-.8-.2c-.4 0-.8.3-1 1h-.7l-.3-6.4h.7c.6 1.6 1.3 2.9 2.3 3.7 1 .9 2 1.3 2.9 1.3a2 2 0 0 0 1.5-.6c.3-.4.5-.8.5-1.3 0-.7-.2-1.2-.5-1.6-.4-.5-1.3-1.1-2.6-2-2-1.4-3.2-2.4-3.8-3.1-.8-1-1.2-2.2-1.2-3.5 0-1.3.5-2.6 1.4-3.7 1-1.1 2.3-1.7 4.1-1.7 1 0 2 .3 2.8.7l.8.3.6-.1.7-.8h.6Zm12.3 0a7.7 7.7 0 0 1 7.4 4.6c.6 1.4 1 3 1 4.8 0 2.5-.7 4.6-2 6.3-1.5 2-3.7 3.1-6.4 3.1s-4.7-1-6.2-2.8c-1.4-1.9-2.1-4-2.1-6.5 0-2.6.7-4.8 2.2-6.7a7.3 7.3 0 0 1 6-2.9Zm0 1.3c-.6 0-1.2.2-1.6.7-.5.5-.8 1.5-1 3a65.6 65.6 0 0 0 .1 9.7c.1 1 .4 1.6.9 2 .4.6 1 .8 1.5.8.6 0 1.1-.2 1.5-.5.5-.4.8-1 1-1.8a43.3 43.3 0 0 0 0-11.7c-.3-.9-.6-1.4-1-1.8a2 2 0 0 0-1.4-.4Zm18.3-.8v2.3c1-1 1.8-1.7 2.7-2.2.8-.4 1.7-.7 2.7-.7 1.1 0 2 .4 2.8 1 .8.6 1.3 1.4 1.6 2.4.2.7.3 2.1.3 4.2v6.9c0 1.4 0 2.2.3 2.6.3.3.8.5 1.6.6v.7h-9v-.7c.7-.1 1.1-.4 1.4-.8.2-.4.3-1.2.3-2.4v-8l-.1-2.7-.6-.9c-.3-.2-.6-.3-1-.3-1 0-2 .8-3 2.3v9.6c0 1.3.2 2.2.4 2.5.3.4.7.6 1.4.7v.7h-9v-.7c.7 0 1.3-.3 1.6-.7.2-.3.3-1.1.3-2.5V94c0-1.4-.1-2.2-.4-2.6-.2-.3-.7-.5-1.5-.6v-.7h7.2Zm21.5-6.5v6.5h4.3V92h-4.3v11c0 1 0 1.6.2 2 0 .2.2.5.5.7l.6.2c.9 0 1.7-.6 2.4-1.9l.6.5c-1 2.4-2.7 3.6-5 3.6-1.2 0-2.1-.3-3-1a4.3 4.3 0 0 1-1.4-2c-.1-.5-.2-1.6-.2-3.5V92h-2.3v-.7a24.3 24.3 0 0 0 7-7.7h.6Zm22.7-1.5v22c0 1.3.1 2.1.4 2.5.3.3.9.5 1.7.6v.7h-9.6v-.7c.8 0 1.4-.3 1.8-.7.2-.3.3-1 .3-2.3V85.8c0-1.2-.1-2-.4-2.3-.3-.4-.9-.6-1.7-.6v-.7h7.5Zm13.7 23.1c-2.2 2-4.1 3-5.9 3-1 0-1.8-.4-2.5-1-.7-.7-1-1.6-1-2.6 0-1.3.6-2.6 1.8-3.6 1.1-1.1 3.7-2.6 7.6-4.4V95c0-1.3 0-2.2-.2-2.5a2 2 0 0 0-.9-1c-.4-.2-.8-.3-1.3-.3-.9 0-1.5.2-2 .5-.4.3-.6.5-.6.8 0 .3.2.6.6 1 .5.6.7 1.1.7 1.6 0 .6-.3 1.2-.7 1.6-.5.4-1 .7-1.8.7a3 3 0 0 1-2-.8c-.6-.5-.8-1-.8-1.7a4 4 0 0 1 1-2.6c.8-.8 1.8-1.5 3-1.9 1.4-.4 2.7-.7 4.1-.7 1.7 0 3 .4 4 1.1a5 5 0 0 1 2 2.3c.1.6.2 1.8.2 3.7v8.5l.4.4.4.2c.4 0 .7-.3 1-.7l.6.4c-.6 1-1.3 1.7-2 2-.7.5-1.4.7-2.3.7-1 0-1.8-.2-2.4-.7-.5-.5-.9-1.2-1-2.2Zm0-1.3v-6c-1.5.9-2.7 1.9-3.4 2.9-.5.7-.8 1.4-.8 2 0 .6.2 1.2.6 1.6.4.3.8.5 1.4.5.6 0 1.3-.3 2.2-1Zm-7.2-22.7h5.7l2.3 6.6h-1.7l-6.3-6.6Zm20.4 20.8a3 3 0 0 1 2.3 1 3 3 0 0 1 .9 2.2 3.1 3.1 0 0 1-3.2 3.2 3 3 0 0 1-3.1-3.2 3 3 0 0 1 .9-2.3 3 3 0 0 1 2.2-.9Z"/><path fill="#000" d="M471.3 109.5h15.2v2.6h-15.2v-2.6Zm26.2 0h160.9v2.6H497.5v-2.6Z"/></svg>
